# Blender v2.91.0 OBJ File: 'HubLevel.blend'
# www.blender.org
mtllib TopFloor.mtl
o Cube.092_Cube.277
v -89.170006 10.415900 153.667343
v -89.170006 25.846699 153.667343
v -89.170006 10.774529 96.594353
v -89.170006 25.796698 96.594353
v -59.644539 10.415900 153.667343
v -59.644539 25.846699 153.667343
v -59.644539 10.774529 96.594353
v -59.644539 25.796698 96.594353
v -116.996216 10.774529 96.594353
v -116.996216 10.415900 153.667343
v -116.996216 25.846699 153.667343
v -116.996216 25.796698 96.594353
vt 0.125000 0.500000
vt 0.125000 0.750000
vt 0.125000 0.750000
vt 0.125000 0.500000
vt 0.375000 0.250000
vt 0.625000 0.250000
vt 0.625000 0.500000
vt 0.375000 0.500000
vt 0.625000 0.750000
vt 0.375000 0.750000
vt 0.625000 1.000000
vt 0.375000 1.000000
vt 0.875000 0.500000
vt 0.875000 0.750000
vt 0.375000 0.000000
vt 0.625000 0.000000
vt 0.625000 0.250000
vt 0.375000 0.250000
vt 0.625000 1.000000
vt 0.375000 1.000000
vt 0.875000 0.500000
vt 0.875000 0.750000
vn 0.0000 -1.0000 -0.0063
vn 0.0000 0.0000 -1.0000
vn 1.0000 0.0000 0.0000
vn 0.0000 0.0000 1.0000
vn 0.0000 1.0000 -0.0009
vn -1.0000 0.0000 0.0000
usemtl None
s off
f 3/1/1 1/2/1 10/3/1 9/4/1
f 3/5/2 4/6/2 8/7/2 7/8/2
f 7/8/3 8/7/3 6/9/3 5/10/3
f 5/10/4 6/9/4 2/11/4 1/12/4
f 3/1/1 7/8/1 5/10/1 1/2/1
f 8/7/5 4/13/5 2/14/5 6/9/5
f 10/15/6 11/16/6 12/17/6 9/18/6
f 1/12/4 2/11/4 11/19/4 10/20/4
f 2/14/5 4/13/5 12/21/5 11/22/5
f 3/1/2 9/4/2 12/17/2 4/13/2
