# ProBuilder 4.4.0
# https://unity3d.com/unity/features/worldbuilding/probuilder
# 2020-11-30 7:05:09 PM

mtllib ./Mountain_Path.mtl
o Mountain Path

g Mountain Path
v -30.75089 -0.125 -132.43
v -40.75089 -0.125 -132.43
v -30.75089 0.125 -132.43
v -40.75089 0.125 -132.43
v -40.75089 -0.125 -141.43
v -40.75089 0.125 -141.43
v -40.75089 -0.125 -149.43
v -30.75089 -0.125 -149.43
v -40.75089 0.125 -149.43
v -30.75089 0.125 -149.43
v -30.75089 -0.125 -141.43
v -30.75089 0.125 -141.43
v -90.79482 0.8826504 -118.6351
v -90.79482 0.6326504 -118.6351
v -98.79436 0.8826504 -118.547
v -98.79436 0.6326504 -118.547
v -75.04307 0.125 -141.43
v -75.04307 -0.125 -141.43
v -75.04307 0.125 -149.43
v -75.04307 -0.125 -149.43
v -75.04307 0.125 -133.43
v -75.04307 -0.125 -133.43
v -82.04307 0.125 -133.43
v -82.04307 -0.125 -133.43
v -82.04307 0.125 -149.43
v -82.04307 0.125 -141.43
v -82.04307 -0.125 -141.43
v -82.04307 -0.125 -149.43
v -81.06001 -3.125 -163.43
v -81.06001 -2.875 -163.43
v -88.06001 -3.125 -163.43
v -88.06001 -2.875 -163.43
v -86.04307 0.125 -133.43
v -86.04307 -0.125 -133.43
v -86.04307 0.125 -149.43
v -86.04307 0.125 -141.43
v -86.04307 -0.125 -141.43
v -86.04307 -0.125 -149.43
v -72.62057 -3.125 -155.4769
v -72.62057 -2.875 -155.4769
v -69.49944 -3.125 -159.3831
v -69.49944 -2.875 -159.3831
v -88.06001 -3.125 -158.43
v -81.06001 -3.125 -158.43
v -81.06001 -2.875 -158.43
v -88.06001 -2.875 -158.43
v -109.06 -2.875 -158.43
v -109.06 -3.125 -158.43
v -109.06 -2.875 -163.43
v -109.06 -3.125 -163.43
v -88.06001 -2.875 -150.43
v -88.06001 -3.125 -150.43
v -98.10429 -2.875 -150.43
v -98.10429 -3.125 -150.43
v -98.10429 -2.875 -163.43
v -98.10429 -2.875 -158.43
v -98.10429 -3.125 -158.43
v -98.10429 -3.125 -163.43
v -109.06 -3.125 -150.43
v -109.06 -2.875 -150.43
v -103.8181 -3.125 -150.43
v -103.8181 -3.125 -158.43
v -103.8181 -2.875 -163.43
v -103.8181 -2.875 -158.43
v -103.8181 -3.125 -163.43
v -103.8181 -2.875 -150.43
v -103.8181 1 -163.43
v -103.8181 1 -158.43
v -109.06 1 -163.43
v -109.06 1 -158.43
v -103.8181 -2.875 -121.2026
v -103.8181 -3.125 -121.2026
v -109.06 -2.875 -121.2026
v -109.06 -3.125 -121.2026
v -103.8181 -2.875 -125.4497
v -103.8181 -3.125 -125.4497
v -109.06 1 -125.3826
v -103.8181 1 -125.3826
v -109.06 1 -121.2026
v -103.8181 1 -121.2026
v -109.06 -3.125 -125.4497
v -109.06 -2.875 -125.4497
v -109.06 -2.875 -128.4504
v -103.8181 -2.875 -128.4504
v -103.8181 -2.813638 -128.4504
v -109.06 -2.813638 -128.4504
v -103.8181 -3.125 -133.4519
v -103.8181 -2.875 -133.4519
v -109.06 -2.875 -133.4519
v -109.06 -3.125 -133.4519
v -103.8181 -2.875 -128.4673
v -103.8181 -3.125 -128.4673
v -109.06 -2.875 -128.4673
v -109.06 -3.125 -128.4673
v -118.6797 -3.125 -128.4673
v -118.5193 -3.125 -133.4519
v -118.5193 -2.875 -133.4519
v -118.6797 -2.875 -128.4673
v -118.6891 -2.875 -121.2026
v -118.6891 -2.875 -125.4497
v -118.6891 1 -125.3826
v -118.6891 1 -121.2026
v -118.6891 -2.874459 -128.6245
v -109.06 -2.874459 -128.6245
v -109.06 1.000541 -128.5574
v -118.6891 1.000541 -128.5574
v -103.8181 -2.875 -118.468
v -109.06 -2.875 -118.468
v -118.6891 1 -118.468
v -109.06 1 -118.468
v -103.8181 1 -118.468
v -118.6891 -2.875 -118.468
v -118.6797 -2.875 -118.4589
v -118.6797 -3.125 -118.4589
v -79.34839 -1.375 -153.93
v -79.34839 -1.625 -153.93
v -86.34839 -1.625 -153.93
v -86.34839 -1.375 -153.93
v -103.8181 -2.860438 -128.4504
v -109.06 -2.860438 -128.4504
v -118.6891 0.2692701 -125.4162
v -118.6891 0.2692701 -121.2026
v -103.8181 0.2692701 -121.2026
v -103.8181 0.2692701 -125.4162
v -109.06 0.2692701 -118.468
v -103.8181 0.2692701 -118.468
v -109.06 0.2692701 -125.4162
v -118.6891 0.2692701 -118.468
v -109.06 0.2698113 -128.5909
v -118.6891 0.2698113 -128.5909
v -121.8031 -3.125 -133.4565
v -121.9635 -3.125 -128.4719
v -121.9635 -3.125 -118.4634
v -121.9635 -2.875 -118.4634
v -121.9635 -2.875 -128.4719
v -121.8031 -2.875 -133.4565
v -118.6804 -2.875 -112.193
v -118.6804 -3.125 -112.193
v -121.9642 -2.875 -112.1976
v -121.9642 -3.125 -112.1976
v -104.0324 -2.875 -118.4588
v -104.0324 -3.125 -118.4588
v -104.0331 -2.875 -112.1929
v -104.0331 -3.125 -112.1929
v -91.18879 0.125 -142.2947
v -91.18879 -0.125 -142.2947
v -98.59447 0.125 -145.3206
v -98.59447 -0.125 -145.3206
v -90.80033 0.8826504 -125.7994
v -90.80033 0.6326504 -125.7994
v -98.79986 0.8826504 -125.3474
v -98.79986 0.6326504 -125.3474
v -103.7511 0.812088 -125.347
v -103.7511 1.062088 -125.347
v -103.7456 0.812088 -118.5467
v -103.7456 1.062088 -118.5467
v -108.7491 -2.875 -118.4588
v -108.7491 -3.125 -118.4588
v -108.7498 -2.875 -112.1929
v -108.7498 -3.125 -112.1929
v -118.6804 -3.125 -92.09793
v -118.6804 -2.875 -92.09793
v -108.7498 -3.125 -92.09788
v -108.7498 -2.875 -92.09788
v -108.7498 -0.7014961 -112.1929
v -108.7491 -0.7014961 -118.4588
v -104.0331 -0.7014961 -112.1929
v -104.0324 -0.7014961 -118.4588

vt 28.80912 0
vt 18.80912 0
vt 28.80912 1
vt 18.80912 1
vt 0 0
vt -9 0
vt 0 1
vt -9 1
vt -18.80912 0
vt -28.80912 0
vt -18.80912 1
vt -28.80912 1
vt 9 0
vt 9 1
vt -28.80912 -9
vt -18.80912 -9
vt 28.80912 -9
vt 18.80912 -9
vt 18.80912 -17
vt 28.80912 -17
vt -31.38485 4.030602
vt -31.38485 3.030602
vt -39.38487 4.030602
vt -39.38487 3.030602
vt 17 0
vt 17 1
vt -28.80912 -17
vt -18.80912 -17
vt -15.48306 1
vt -15.48306 0
vt 15.48306 -17
vt 15.48306 -9
vt -15.48306 -9
vt -15.48306 -17
vt 15.48306 0
vt 15.48306 1
vt -22.48306 1
vt -22.48306 0
vt 22.48306 -17
vt 22.48306 -9
vt -22.48306 -9
vt -22.48306 -17
vt 21.5 -12
vt 21.5 -11
vt 28.5 -12
vt 28.5 -11
vt -26.48306 1
vt -26.48306 0
vt 26.48306 -17
vt 26.48306 -9
vt -26.48306 -9
vt -26.48306 -17
vt 22.48306 0
vt 22.48306 1
vt 26.48306 0
vt 26.48306 1
vt 1 1
vt 1 0
vt 22.48306 -1
vt 15.48306 -1
vt -15.48306 -1
vt -22.48306 -1
vt 26.48306 -1
vt -26.48306 -1
vt -1 0
vt -1 1
vt 9.852458 -12
vt 9.852458 -11
vt 14.85246 -12
vt 14.85246 -11
vt -28.5 -26
vt -21.5 -26
vt -28.5 -31
vt -21.5 -31
vt 21.5 -26
vt 28.5 -26
vt 21.5 -31
vt 28.5 -31
vt -26 -11
vt -26 -12
vt -31 -11
vt -31 -12
vt -28.88079 -12
vt -28.88079 -11
vt -19.93961 -12
vt -19.93961 -11
vt -9.93943 -26.95311
vt -13.06057 -23.04689
vt 13.06057 -23.04689
vt 9.93943 -26.95311
vt 30.535 -11
vt 30.535 -12
vt 18.28657 -11
vt 18.28657 -12
vt -28.5 -11
vt -28.5 -12
vt -38.54428 -11
vt -38.54428 -12
vt 38.54428 -31
vt 38.54428 -26
vt -38.54428 -26
vt -38.54428 -31
vt 38.54428 -12
vt 38.54428 -11
vt 26 -11
vt 26 -12
vt 18 -11
vt 18 -12
vt 38.54428 -18
vt 28.5 -18
vt -28.5 -18
vt -38.54428 -18
vt -18 -12
vt -18 -11
vt -44.2581 -18
vt -44.2581 -26
vt 44.2581 -31
vt 44.2581 -26
vt -44.2581 -31
vt 44.2581 -12
vt 44.2581 -11
vt 44.2581 -18
vt -44.2581 -11
vt -44.2581 -12
vt -49.5 -18
vt -49.5 -26
vt 49.5 -31
vt 49.5 -26
vt -49.5 -31
vt 49.5 -12
vt 49.5 -11
vt 49.5 -18
vt -49.5 -11
vt -49.5 -12
vt 31 -11
vt 31 4.5
vt 26 4.5
vt 49.5 4.5
vt 44.2581 4.5
vt -44.2581 4.5
vt -49.5 4.5
vt -26 4.5
vt -31 4.5
vt -6.98027 -11
vt -6.98027 -12
vt -11.22743 -11
vt -11.22743 -12
vt 49.5 7.047379
vt 44.2581 7.047379
vt 49.5 11.22743
vt 44.2581 11.22743
vt -44.2581 6.98027
vt -49.5 6.98027
vt -44.2581 11.22743
vt -49.5 11.22743
vt 6.98027 -12
vt 6.98027 -11
vt 11.22743 -12
vt 11.22743 -11
vt -49.5 3.97963
vt -44.2581 3.97963
vt 44.2581 5.801111
vt 49.5 5.801111
vt 44.25809 -9.758851
vt 49.50001 -9.758851
vt 1.021896 -12
vt 1.021896 -11
vt 44.2581 -1.021896
vt 49.5 -1.021896
vt -49.5 -1.021896
vt -44.2581 -1.021896
vt -1.021896 -11
vt -1.021896 -12
vt -3.962692 -11
vt -3.962692 -12
vt 44.2581 3.962692
vt 49.5 3.962692
vt 44.2581 6.98027
vt 49.5 6.98027
vt -49.5 3.962692
vt -44.2581 3.962692
vt 3.962692 -12
vt 3.962692 -11
vt -59.11968 3.962692
vt -58.9593 -1.021896
vt 58.9593 -12
vt 58.9593 -11
vt -59.11968 -11
vt -59.11968 -12
vt 58.9593 -1.021896
vt 59.11968 3.962692
vt -59.12911 11.22743
vt -59.12911 6.98027
vt 59.12911 7.047379
vt 59.12911 11.22743
vt -59.12911 6.98777
vt -49.5 6.98777
vt -59.12911 3.813025
vt -49.5 3.813025
vt 49.5 7.044308
vt 59.12911 7.044308
vt 49.5 3.869564
vt 59.12911 3.869564
vt -44.2581 13.96196
vt -49.5 13.96196
vt 59.12911 13.96196
vt 49.5 13.96196
vt 44.2581 13.96196
vt -59.12911 13.96196
vt -13.97115 -11
vt -13.97115 -12
vt 22.6414 0
vt 22.6414 1
vt 28.74519 -5
vt 28.74519 -6
vt 33.46382 -11
vt 33.46382 -12
vt -22.48306 -10.2
vt -15.48306 -10.2
vt -19.78838 -17.7
vt -26.78838 -17.7
vt -21.5 -25.2
vt -28.5 -25.2
vt 15.48306 -9.4
vt 22.48306 -9.4
vt 26.78838 -16.9
vt 19.78838 -16.9
vt 28.5 -24.4
vt 21.5 -24.4
vt -26.37971 1
vt -26.37971 0
vt -32.4835 -6
vt -32.4835 -5
vt -37.20213 -12
vt -37.20213 -11
vt 44.25809 -10.94175
vt 49.50001 -10.94175
vt 44.25809 -10.75455
vt 49.50001 -10.75455
vt 7.013824 1.57708
vt 11.22743 1.57708
vt -6.98027 -10.99996
vt -11.22743 -10.99996
vt -11.22743 1.577125
vt -7.013824 1.577125
vt -11.22743 4.500044
vt -7.047379 4.500044
vt -49.50001 1.57708
vt -44.25809 1.57708
vt 7.047379 4.503242
vt 7.013824 1.580322
vt 3.97963 -10.93851
vt 3.97963 -10.75131
vt 6.98027 -10.99676
vt 3.97963 -10.99676
vt -3.979439 -10.94171
vt -3.979439 -10.99995
vt -3.979439 -10.7545
vt -59.12911 1.57708
vt -59.12911 4.5
vt -59.12911 -11
vt 49.5 -10.97064
vt 49.50001 1.606361
vt 59.12911 1.606361
vt 59.12911 -10.97064
vt 49.5 4.529445
vt 59.12911 4.529445
vt -3.839081 1.579195
vt -3.805527 -10.99788
vt -7.047379 4.49995
vt -3.872635 4.502115
vt 7.047379 4.5
vt 3.839081 1.579245
vt 3.872635 4.502165
vt 3.805527 -10.99784
vt -13.96196 1.577125
vt -13.96196 4.500044
vt -13.96196 -10.99996
vt 13.96196 1.57708
vt 13.96196 -11
vt 11.22743 4.5
vt 13.96196 4.5
vt -0.4563278 -12
vt 4.529521 -12
vt 14.53755 -12
vt 14.53755 -11
vt 4.529521 -11
vt -0.4563278 -11
vt -62.40353 3.958115
vt -62.24314 -1.026474
vt 58.96067 -12
vt 58.96067 -11
vt 62.24451 -12
vt 62.24451 -11
vt -59.09212 -11
vt -59.09212 -12
vt -62.37597 -11
vt -62.37597 -12
vt 59.11968 13.97115
vt 62.40353 3.958115
vt 62.40353 13.96657
vt -59.11968 13.97115
vt -62.40353 13.96657
vt 62.24314 -1.026474
vt -13.97623 -11
vt -13.97623 -12
vt -20.24211 -11
vt -20.24211 -12
vt 62.40423 20.23244
vt 59.12038 20.23702
vt -59.12038 20.23702
vt -62.40423 20.23244
vt 13.97356 -12
vt 13.97356 -11
vt 20.23944 -12
vt 20.23944 -11
vt -27.60835 1
vt -27.60835 0
vt -32.82622 1
vt -32.82622 0
vt 39.03447 -12.89058
vt 31.62878 -9.8647
vt -31.62878 -9.8647
vt -39.03447 -12.89058
vt 19.8788 0
vt 19.8788 1
vt 33.08581 0
vt 33.08581 1
vt 10.6066 1
vt 10.6066 0
vt -5.893316 4.030602
vt -5.893316 3.030602
vt 39.02192 -12.95629
vt 31.6303 -9.896194
vt 39.41365 7.242805
vt 31.42933 6.869357
vt -31.53832 -10.13496
vt -38.92282 -13.21217
vt -31.38002 6.640226
vt -39.35667 6.974723
vt -12.48853 0
vt -12.48853 1
vt 7.485762 3.030602
vt 7.485762 4.030602
vt -6.606624 4.030602
vt -6.606624 3.030602
vt -13.7709 4.030602
vt -13.7709 3.030602
vt 39.23985 7.082657
vt 31.24033 6.630646
vt 39.23435 13.88303
vt 31.23482 13.79492
vt -31.24033 6.630646
vt -39.23985 7.082657
vt -31.23482 13.79492
vt -39.23435 13.88303
vt 7.047179 3.748352
vt 7.047179 4.748352
vt 13.84754 3.748352
vt 13.84754 4.748352
vt 39.24031 3.030602
vt 39.24031 4.030602
vt 44.19158 3.748352
vt 44.19158 4.748352
vt -39.26328 13.88272
vt -39.26872 7.082352
vt -44.26629 13.88303
vt -44.27175 7.082672
vt 39.41219 7.082467
vt 39.40674 13.88284
vt 44.41521 7.082787
vt 44.40976 13.88315
vt -39.23523 4.030602
vt -39.23523 3.030602
vt -44.18649 4.748352
vt -44.18649 3.748352
vt 59.11961 -11
vt 59.11961 -12
vt 49.18899 -11
vt 49.18899 -12
vt 49.18977 20.23708
vt 49.18906 13.9712
vt -49.18906 13.9712
vt -49.18977 20.23708
vt -59.12017 -12
vt -59.12017 -11
vt -49.18955 -12
vt -49.18955 -11
vt 44.47222 -11
vt 44.47222 -12
vt 44.47308 20.23713
vt 44.47237 13.97125
vt -44.47237 13.97125
vt -44.47308 20.23713
vt -44.47285 -12
vt -44.47285 -11
vt 20.24259 -11
vt 13.97671 -11
vt 20.24259 -2.305984
vt 13.97671 -2.305984
vt -44.47285 -2.305984
vt -49.18954 -2.305984
vt 49.18891 -2.305984
vt 44.47222 -2.305984
vt -13.97623 -2.305984
vt -20.24211 -2.305984
vt 20.23702 -12
vt 20.23702 -11
vt 40.33208 -12
vt 40.33208 -11
vt -49.18977 40.33213
vt -59.12038 40.33208
vt 59.12038 40.33208
vt 49.18977 40.33213
vt -20.23708 -11
vt -20.23708 -12
vt -40.33213 -11
vt -40.33213 -12

vn 0 0 1
vn -1 0 0
vn 0 0 -1
vn 1 0 0
vn 0 0.25 0
vn 0 -0.25 0
vn 0.011013 0 0.9999394
vn 0.7812429 0 0.6242271
vn -0.3302816 0 0.9438825
vn 0.3304007 0 -0.9438408
vn 0 0.04928914 -0.980372
vn 0 -0.2499999 -0.0006818944
vn 0 0.2499999 0.0006818944
vn 0.7225638 0 -0.6913042
vn 0.9346721 0 -0.3555112
vn 0 -0.15 0.8
vn 0 0.15 -0.8
vn -0.7225638 0 0.6913042
vn -0.9346721 0 0.3555112
vn 0 0.0006669664 -0.9999965
vn 0 0.002869722 -0.9999341
vn -0.9994828 0 -0.03215956
vn -0.9996552 0 -0.02143971
vn -0.9998276 0 -0.01071985
vn 0.001393989 0 -0.999999
vn -0.001393986 0 0.999999
vn -0.1657191 0 0.986173
vn -0.3111545 0 -0.9503593
vn 0.9997228 0 -0.02354304
vn 0.06093071 0.2467348 -0.1491248
vn 0.02536697 0.2463086 -0.1647917
vn -0.01019676 0.2458824 -0.1804585
vn -0.07431951 -0.2451264 0.1818932
vn -0.03291919 -0.2461426 0.1659946
vn 0.008481128 -0.2471588 0.1500959
vn -0.9999471 0 -0.01028238
vn 0.9999998 0 -0.0007688734
vn -0.9999996 0 0.0008100188
vn -0.1434635 -0.2474139 0.0001160471
vn 0.1434633 0.2474139 -0.000116047

usemtl Default-Diffuse
f 136/288/22 131/283/22 132/284/23
f 135/287/24 133/285/2 134/286/2
f 135/287/24 132/284/23 133/285/2
f 136/288/22 132/284/23 135/287/24
f 4/4/1 2/2/1 1/1/1
f 1/1/1 3/3/1 4/4/1
f 6/8/2 5/6/2 2/5/2
f 2/5/2 4/7/2 6/8/2
f 10/12/3 8/10/3 7/9/3
f 7/9/3 9/11/3 10/12/3
f 3/7/4 1/5/4 11/13/4
f 11/13/4 12/14/4 3/7/4
f 6/16/5 4/9/5 3/10/5
f 3/10/5 12/15/5 6/16/5
f 2/2/6 5/18/6 11/17/6
f 11/17/6 1/1/6 2/2/6
f 8/20/6 11/17/6 5/18/6
f 5/18/6 7/19/6 8/20/6
f 16/24/7 14/22/7 13/21/7
f 13/21/7 15/23/7 16/24/7
f 10/26/4 12/14/4 11/13/4
f 11/13/4 8/25/4 10/26/4
f 9/28/5 6/16/5 12/15/5
f 12/15/5 10/27/5 9/28/5
f 18/30/1 5/2/1 6/4/1
f 6/4/1 17/29/1 18/30/1
f 17/32/5 6/16/5 9/28/5
f 9/28/5 19/31/5 17/32/5
f 20/34/6 7/19/6 5/18/6
f 5/18/6 18/33/6 20/34/6
f 19/36/3 9/11/3 7/9/3
f 7/9/3 20/35/3 19/36/3
f 24/38/1 22/30/1 21/29/1
f 21/29/1 23/37/1 24/38/1
f 26/40/5 17/32/5 19/31/5
f 19/31/5 25/39/5 26/40/5
f 28/42/6 20/34/6 18/33/6
f 18/33/6 27/41/6 28/42/6
f 32/46/3 30/44/3 29/43/3
f 29/43/3 31/45/3 32/46/3
f 34/48/1 24/38/1 23/37/1
f 23/37/1 33/47/1 34/48/1
f 36/50/5 26/40/5 25/39/5
f 25/39/5 35/49/5 36/50/5
f 38/52/6 28/42/6 27/41/6
f 27/41/6 37/51/6 38/52/6
f 35/56/3 25/54/3 28/53/3
f 28/53/3 38/55/3 35/56/3
f 22/58/4 18/13/4 17/14/4
f 17/14/4 21/57/4 22/58/4
f 21/60/5 17/32/5 26/40/5
f 26/40/5 23/59/5 21/60/5
f 24/62/6 27/41/6 18/33/6
f 18/33/6 22/61/6 24/62/6
f 23/59/5 26/40/5 36/50/5
f 36/50/5 33/63/5 23/59/5
f 34/64/6 37/51/6 27/41/6
f 27/41/6 24/62/6 34/64/6
f 33/66/2 36/8/2 37/6/2
f 37/6/2 34/65/2 33/66/2
f 42/70/8 40/68/8 39/67/8
f 39/67/8 41/69/8 42/70/8
f 29/74/6 44/72/6 43/71/6
f 43/71/6 31/73/6 29/74/6
f 32/78/5 46/76/5 45/75/5
f 45/75/5 30/77/5 32/78/5
f 50/82/2 48/80/2 47/79/2
f 47/79/2 49/81/2 50/82/2
f 40/86/9 45/84/9 44/83/9
f 44/83/9 39/85/9 40/86/9
f 39/88/6 44/72/6 29/74/6
f 29/74/6 41/87/6 39/88/6
f 42/90/5 30/77/5 45/75/5
f 45/75/5 40/89/5 42/90/5
f 41/94/10 29/92/10 30/91/10
f 30/91/10 42/93/10 41/94/10
f 54/98/1 52/96/1 51/95/1
f 51/95/1 53/97/1 54/98/1
f 56/100/5 46/76/5 32/78/5
f 32/78/5 55/99/5 56/100/5
f 58/102/6 31/73/6 43/71/6
f 43/71/6 57/101/6 58/102/6
f 55/104/3 32/46/3 31/45/3
f 31/45/3 58/103/3 55/104/3
f 52/108/4 43/106/4 46/105/4
f 46/105/4 51/107/4 52/108/4
f 51/110/5 46/76/5 56/100/5
f 56/100/5 53/109/5 51/110/5
f 54/112/6 57/101/6 43/71/6
f 43/71/6 52/111/6 54/112/6
f 60/114/2 47/79/2 48/80/2
f 48/80/2 59/113/2 60/114/2
f 62/116/6 57/101/6 54/112/6
f 54/112/6 61/115/6 62/116/6
f 64/118/5 56/100/5 55/99/5
f 55/99/5 63/117/5 64/118/5
f 65/119/6 58/102/6 57/101/6
f 57/101/6 62/116/6 65/119/6
f 63/121/3 55/104/3 58/103/3
f 58/103/3 65/120/3 63/121/3
f 66/122/5 53/109/5 56/100/5
f 56/100/5 64/118/5 66/122/5
f 61/124/1 54/98/1 53/97/1
f 53/97/1 66/123/1 61/124/1
f 48/126/6 62/116/6 61/115/6
f 61/115/6 59/125/6 48/126/6
f 70/128/5 68/118/5 67/117/5
f 67/117/5 69/127/5 70/128/5
f 50/129/6 65/119/6 62/116/6
f 62/116/6 48/126/6 50/129/6
f 49/131/3 63/121/3 65/120/3
f 65/120/3 50/130/3 49/131/3
f 60/132/5 66/122/5 64/118/5
f 64/118/5 47/128/5 60/132/5
f 74/134/1 72/124/1 71/123/1
f 71/123/1 73/133/1 74/134/1
f 68/137/4 64/105/4 63/135/4
f 63/135/4 67/136/4 68/137/4
f 67/139/3 63/121/3 49/131/3
f 49/131/3 69/138/3 67/139/3
f 70/141/1 47/133/1 64/123/1
f 64/123/1 68/140/1 70/141/1
f 69/143/2 49/81/2 47/79/2
f 47/79/2 70/142/2 69/143/2
f 72/147/4 76/145/4 75/144/4
f 75/144/4 71/146/4 72/147/4
f 80/151/5 78/149/5 77/148/5
f 77/148/5 79/150/5 80/151/5
f 74/155/6 81/153/6 76/152/6
f 76/152/6 72/154/6 74/155/6
f 73/159/2 82/157/2 81/156/2
f 81/156/2 74/158/2 73/159/2
f 84/161/6 75/152/6 82/153/6
f 82/153/6 83/160/6 84/161/6
f 86/165/11 77/163/11 78/162/11
f 78/162/11 85/164/11 86/165/11
f 66/107/4 88/167/4 87/166/4
f 87/166/4 61/108/4 66/107/4
f 88/168/5 66/122/5 60/132/5
f 60/132/5 89/169/5 88/168/5
f 87/171/6 90/170/6 59/125/6
f 59/125/6 61/115/6 87/171/6
f 60/114/2 59/113/2 90/173/2
f 90/173/2 89/172/2 60/114/2
f 91/174/4 75/144/4 76/145/4
f 76/145/4 92/175/4 91/174/4
f 88/167/4 91/174/4 92/175/4
f 92/175/4 87/166/4 88/167/4
f 91/176/5 88/168/5 89/169/5
f 89/169/5 93/177/5 91/176/5
f 75/178/5 91/176/5 93/177/5
f 93/177/5 82/179/5 75/178/5
f 92/181/6 94/180/6 90/170/6
f 90/170/6 87/171/6 92/181/6
f 76/152/6 81/153/6 94/180/6
f 94/180/6 92/181/6 76/152/6
f 93/183/2 94/182/2 81/156/2
f 81/156/2 82/157/2 93/183/2
f 96/185/6 90/170/6 94/180/6
f 94/180/6 95/184/6 96/185/6
f 97/187/3 89/131/3 90/130/3
f 90/130/3 96/186/3 97/187/3
f 95/189/1 94/134/1 93/133/1
f 93/133/1 98/188/1 95/189/1
f 98/191/5 93/177/5 89/169/5
f 89/169/5 97/190/5 98/191/5
f 100/193/6 82/153/6 73/155/6
f 73/155/6 99/192/6 100/193/6
f 102/195/5 79/150/5 77/148/5
f 77/148/5 101/194/5 102/195/5
f 104/199/12 82/197/12 100/196/12
f 100/196/12 103/198/12 104/199/12
f 106/203/13 101/201/13 77/200/13
f 77/200/13 105/202/13 106/203/13
f 108/205/6 73/155/6 71/154/6
f 71/154/6 107/204/6 108/205/6
f 110/207/5 79/150/5 102/195/5
f 102/195/5 109/206/5 110/207/5
f 111/208/5 80/151/5 79/150/5
f 79/150/5 110/207/5 111/208/5
f 112/209/6 99/192/6 73/155/6
f 73/155/6 108/205/6 112/209/6
f 114/211/4 95/175/4 98/174/4
f 98/174/4 113/210/4 114/211/4
f 115/214/14 19/213/14 20/212/14
f 20/212/14 116/215/14 115/214/14
f 45/216/15 115/214/15 116/215/15
f 116/215/15 44/217/15 45/216/15
f 28/218/16 117/221/16 116/220/16
f 116/220/16 20/219/16 28/218/16
f 117/221/16 43/223/16 44/222/16
f 44/222/16 116/220/16 117/221/16
f 25/225/17 19/224/17 115/227/17
f 115/227/17 118/226/17 25/225/17
f 118/226/17 115/227/17 45/229/17
f 45/229/17 46/228/17 118/226/17
f 25/230/18 118/233/18 117/232/18
f 117/232/18 28/231/18 25/230/18
f 118/233/19 46/235/19 43/234/19
f 43/234/19 117/232/19 118/233/19
f 120/237/3 119/236/3 84/121/3
f 84/121/3 83/131/3 120/237/3
f 86/239/3 85/238/3 119/236/3
f 119/236/3 120/237/3 86/239/3
f 100/157/2 99/159/2 122/241/2
f 122/241/2 121/240/2 100/157/2
f 71/243/4 75/242/4 124/245/4
f 124/245/4 123/244/4 71/243/4
f 123/244/4 124/245/4 78/247/4
f 78/247/4 80/246/4 123/244/4
f 125/248/1 108/133/1 107/123/1
f 107/123/1 126/249/1 125/248/1
f 110/141/1 125/248/1 126/249/1
f 126/249/1 111/140/1 110/141/1
f 77/250/2 86/253/2 120/252/2
f 120/252/2 127/251/2 77/250/2
f 120/252/2 83/255/2 82/254/2
f 82/254/2 127/251/2 120/252/2
f 119/256/4 124/245/4 75/242/4
f 75/242/4 84/257/4 119/256/4
f 85/258/4 78/247/4 124/245/4
f 124/245/4 119/256/4 85/258/4
f 109/260/1 128/259/1 125/248/1
f 125/248/1 110/141/1 109/260/1
f 128/259/1 112/261/1 108/133/1
f 108/133/1 125/248/1 128/259/1
f 130/264/20 129/263/20 104/262/20
f 104/262/20 103/265/20 130/264/20
f 106/267/21 105/266/21 129/263/21
f 129/263/21 130/264/21 106/267/21
f 82/144/4 104/269/4 129/268/4
f 129/268/4 127/245/4 82/144/4
f 127/245/4 129/268/4 105/271/4
f 105/271/4 77/270/4 127/245/4
f 130/273/2 121/240/2 101/272/2
f 101/272/2 106/274/2 130/273/2
f 103/275/2 100/157/2 121/240/2
f 121/240/2 130/273/2 103/275/2
f 123/244/4 80/246/4 111/277/4
f 111/277/4 126/276/4 123/244/4
f 71/243/4 123/244/4 126/276/4
f 126/276/4 107/278/4 71/243/4
f 122/241/2 99/159/2 112/280/2
f 112/280/2 128/279/2 122/241/2
f 102/281/2 122/241/2 128/279/2
f 128/279/2 109/282/2 102/281/2
f 121/240/2 122/241/2 102/281/2
f 102/281/2 101/272/2 121/240/2
f 131/290/6 96/185/6 95/184/6
f 95/184/6 132/289/6 131/290/6
f 136/294/25 97/292/25 96/291/25
f 96/291/25 131/293/25 136/294/25
f 140/298/26 138/296/26 137/295/26
f 137/295/26 139/297/26 140/298/26
f 134/301/5 113/299/5 98/191/5
f 98/191/5 135/300/5 134/301/5
f 132/289/6 95/184/6 114/302/6
f 114/302/6 133/303/6 132/289/6
f 135/300/5 98/191/5 97/190/5
f 97/190/5 136/304/5 135/300/5
f 144/308/4 142/306/4 141/305/4
f 141/305/4 143/307/4 144/308/4
f 137/310/5 113/299/5 134/301/5
f 134/301/5 139/309/5 137/310/5
f 140/312/6 133/303/6 114/302/6
f 114/302/6 138/311/6 140/312/6
f 139/316/2 134/314/2 133/313/2
f 133/313/2 140/315/2 139/316/2
f 146/320/27 37/318/27 36/317/27
f 36/317/27 145/319/27 146/320/27
f 145/322/5 36/50/5 35/49/5
f 35/49/5 147/321/5 145/322/5
f 148/324/6 38/52/6 37/51/6
f 37/51/6 146/323/6 148/324/6
f 147/328/28 35/326/28 38/325/28
f 38/325/28 148/327/28 147/328/28
f 150/332/29 146/330/29 145/329/29
f 145/329/29 149/331/29 150/332/29
f 149/336/32 145/334/31 147/333/30
f 147/333/30 151/335/31 149/336/32
f 152/340/35 148/338/34 146/337/33
f 146/337/33 150/339/34 152/340/35
f 151/344/36 147/342/36 148/341/36
f 148/341/36 152/343/36 151/344/36
f 14/348/37 150/346/37 149/345/37
f 149/345/37 13/347/37 14/348/37
f 13/352/5 149/350/5 151/349/5
f 151/349/5 15/351/5 13/352/5
f 16/356/6 152/354/6 150/353/6
f 150/353/6 14/355/6 16/356/6
f 156/360/38 154/358/38 153/357/38
f 153/357/38 155/359/38 156/360/38
f 154/364/3 151/362/3 152/361/3
f 152/361/3 153/363/3 154/364/3
f 153/368/39 152/366/39 16/365/39
f 16/365/39 155/367/39 153/368/39
f 156/372/40 15/370/40 151/369/40
f 151/369/40 154/371/40 156/372/40
f 155/376/1 16/374/1 15/373/1
f 15/373/1 156/375/1 155/376/1
f 158/380/3 114/378/3 113/377/3
f 113/377/3 157/379/3 158/380/3
f 157/382/5 113/299/5 137/310/5
f 137/310/5 159/381/5 157/382/5
f 160/384/6 138/311/6 114/302/6
f 114/302/6 158/383/6 160/384/6
f 164/388/1 162/386/1 161/385/1
f 161/385/1 163/387/1 164/388/1
f 142/390/3 158/380/3 157/379/3
f 157/379/3 141/389/3 142/390/3
f 168/392/5 166/382/5 165/381/5
f 165/381/5 167/391/5 168/392/5
f 144/394/6 160/384/6 158/383/6
f 158/383/6 142/393/6 144/394/6
f 143/396/1 159/388/1 160/387/1
f 160/387/1 144/395/1 143/396/1
f 166/400/2 157/398/2 159/397/2
f 159/397/2 165/399/2 166/400/2
f 165/402/1 159/388/1 143/396/1
f 143/396/1 167/401/1 165/402/1
f 168/404/3 141/389/3 157/379/3
f 157/379/3 166/403/3 168/404/3
f 167/406/4 143/307/4 141/305/4
f 141/305/4 168/405/4 167/406/4
f 162/410/2 137/408/2 138/407/2
f 138/407/2 161/409/2 162/410/2
f 161/412/6 138/311/6 160/384/6
f 160/384/6 163/411/6 161/412/6
f 164/414/5 159/381/5 137/310/5
f 137/310/5 162/413/5 164/414/5
f 163/418/4 160/416/4 159/415/4
f 159/415/4 164/417/4 163/418/4

